<?xml version="1.0" standalone="no"?>
<!DOCTYPE svg PUBLIC "-//W3C//DTD SVG 1.1//EN" "http://www.w3.org/Graphics/SVG/1.1/DTD/svg11.dtd" >
<svg xmlns="http://www.w3.org/2000/svg">
<metadata></metadata>
<defs>
<font id="mahidol_eng1regular" horiz-adv-x="0" >
<font-face units-per-em="2048" ascent="1638" descent="-410" />
<missing-glyph horiz-adv-x="569" />
<glyph unicode="&#xe2f;&#xe2f;" horiz-adv-x="1024" />
<glyph unicode="&#xe4f;&#x22;" horiz-adv-x="1064" />
<glyph unicode="&#xe24;&#xe32;" horiz-adv-x="1873" />
<glyph unicode="&#xe26;&#xe32;" horiz-adv-x="1871" />
<glyph unicode="fi" horiz-adv-x="821" />
<glyph unicode="fl" horiz-adv-x="819" />
<glyph unicode="&#xd;" horiz-adv-x="399" />
<glyph unicode=" "  horiz-adv-x="569" />
<glyph unicode="&#x09;" horiz-adv-x="569" />
<glyph unicode="&#xa0;" horiz-adv-x="569" />
<glyph unicode="!" horiz-adv-x="280" d="M98 82v78q23 2 43 -6q16 -6 29.5 -22.5t13.5 -49.5v-29.5t2 -25.5q2 -14 4 -27q-23 -2 -43 6q-16 6 -31.5 23.5t-17.5 52.5zM98 256v877q20 0 39 -11q16 -10 29.5 -34.5t17.5 -77.5v-754h-86z" />
<glyph unicode="&#x22;" horiz-adv-x="665" d="M141 1049l72 313q20 -6 33 -23q10 -16 17 -43.5t-3 -78.5q-12 -35 -19.5 -78t-17.5 -90h-82zM385 1049l70 313q20 -6 32 -23q10 -16 15.5 -43.5t-6.5 -78.5q-6 -35 -16.5 -78t-22.5 -90h-72z" />
<glyph unicode="#" horiz-adv-x="925" d="M111 319q0 18 12 35q10 14 36.5 25.5t78.5 11.5h36q6 51 15.5 105.5t15.5 105.5h-160q0 18 15 35q10 14 36.5 25.5t77.5 11.5h41q6 39 12.5 72.5t10.5 58.5q6 29 8 53q2 37 12 66q10 23 27.5 41t52.5 14l-49 -305h191q4 39 8 72.5t8 58.5q6 29 10 53q2 37 12 66 q10 23 27 41t49 14l-45 -305q37 4 68 -2q25 -4 46 -19.5t21 -50.5h-147l-31 -211h8q37 4 66 -2q25 -4 46.5 -19.5t21.5 -50.5h-158l-49 -317q-20 2 -33 18q-10 14 -17.5 41t1.5 76q4 27 11 75t19 107h-190l-49 -317q-20 2 -33 18q-10 14 -18.5 41t1.5 76q4 27 13.5 75 t19.5 107h-155zM346 391h186q6 51 15.5 105.5t17.5 105.5h-188z" />
<glyph unicode="$" horiz-adv-x="1085" d="M154 322l82 22v-6q4 -4 5 -8t5 -8q4 -10 10 -24.5t18 -31.5q27 -33 67 -68.5t105 -58.5q18 -4 38 -9t38 -5v348q-59 16 -115.5 30.5t-109.5 37.5q-43 20 -78 47.5t-51 66.5q-4 23 -7 44.5t-3 39.5q0 53 23.5 105.5t69.5 93.5t113.5 67.5t157.5 30.5v142q20 0 37 -13 q14 -10 26.5 -37.5t12.5 -80.5v-15q94 -6 155.5 -46t100.5 -81q43 -53 58.5 -95t19.5 -42l-86 -27v2q0 2 -1 3.5t-1 5.5q0 10 -10 24q-6 29 -41 74q-31 33 -77 62.5t-118 35.5v-407q39 -8 71.5 -11.5t57.5 -7.5q29 -4 53 -6v-6h6q10 -4 21 -8q10 -4 22.5 -9.5t28.5 -13.5 q25 -18 49.5 -52t24.5 -83q0 -39 -12.5 -75t-40.5 -81l-7 -6q-14 -18 -39.5 -39.5t-61.5 -42t-79 -35t-94 -18.5q2 -16 0 -38.5t-10 -42t-23.5 -34t-42.5 -14.5v129q-23 0 -47 2t-51 12q-82 27 -134 70t-82 85t-41 71.5t-13 34.5zM240 739q0 -16 3 -29.5t7 -29.5 q0 -6 23.5 -24.5t58.5 -37.5q39 -18 88 -33.5t96 -25.5h6v389q-80 -4 -133 -22.5t-86 -48t-47 -65.5t-16 -73zM598 125q78 10 133 46.5t78 59.5q23 41 30 67t7 46q0 37 -21 57q-27 20 -49 29q-10 0 -10 4q-10 0 -56 7.5t-112 19.5v-336z" />
<glyph unicode="%" horiz-adv-x="1310" d="M80 844q0 55 17.5 104t49 85t74.5 57.5t94 21.5q49 0 91.5 -21.5t73 -57.5t47 -85t16.5 -104q0 -53 -16.5 -100.5t-47 -82t-72.5 -56t-92 -21.5q-51 0 -94 21.5t-74.5 56t-49 82t-17.5 100.5zM180 844q0 -31 11.5 -63.5t27.5 -57.5q23 -23 44.5 -34t51.5 -11q53 0 88 45 q20 25 33 57.5t13 63.5q0 39 -12.5 72.5t-33.5 56.5q-37 47 -88 47q-31 0 -52 -12.5t-44 -34.5q-16 -23 -27.5 -56.5t-11.5 -72.5zM342 87q4 34 33 89q14 27 44 82t68.5 126t83.5 152.5t91 161.5q104 189 227 414q20 45 43 74q20 25 49 39t63 -6l-663 -1221q-25 12 -33 35 q-10 20 -6 54zM782 354q0 51 16.5 99.5t47.5 84t74 57t96 21.5q51 0 93 -21.5t72.5 -57t47 -83.5t16.5 -100q0 -53 -16.5 -102t-47 -86t-72.5 -58.5t-93 -21.5q-53 0 -96 21.5t-74 58.5t-47.5 86t-16.5 102zM877 354q0 -74 45 -123q23 -25 44 -37t50 -12q49 0 90 49 q45 49 45 123q0 72 -45 123q-41 45 -90 45q-29 0 -50.5 -11t-43.5 -34q-45 -51 -45 -123z" />
<glyph unicode="&#x26;" horiz-adv-x="1105" d="M78 311q0 31 7 61.5t17 67.5q10 25 35 51.5t60 57.5q33 35 69.5 64.5t77.5 58.5v4q-16 16 -27.5 33.5t-27.5 27.5q-88 100 -88 195q0 53 25.5 96t62.5 70q35 23 73.5 37t75.5 14h4q53 0 95.5 -19.5t76.5 -48.5q35 -29 54.5 -67.5t19.5 -81.5q-2 -41 -16.5 -74 t-31.5 -55.5t-31.5 -35.5t-14.5 -15h-4q-16 -12 -35 -27q-16 -12 -36.5 -28.5t-45.5 -34.5q72 -86 162 -183.5t174 -185.5q23 47 37 93t20 79q4 18 6 32.5t5 24.5q2 10 4 21l84 -11q-6 -41 -15 -83q-10 -39 -24.5 -86.5t-40.5 -100.5q-6 -23 -19 -35q37 -41 68 -74.5 t53 -58.5q25 -29 47 -53l-59 -55q-20 20 -43 47q-20 23 -48 53.5t-61 67.5q-59 -72 -146 -122t-214 -50h-25q-41 0 -97 18t-116 57q-59 35 -103 99.5t-44 154.5zM162 311q0 -63 32.5 -108t79.5 -76q45 -31 94.5 -46t73.5 -15h21q109 0 177.5 43t117.5 102l6 6 q-86 94 -182.5 199.5t-178.5 195.5q-41 -29 -80.5 -61.5t-68.5 -61.5q-29 -25 -48.5 -50t-23.5 -33q-8 -25 -14 -48.5t-6 -46.5zM285 932q0 -25 15 -58.5t54 -78.5q14 -14 28.5 -32t31.5 -36q47 37 81.5 60.5t47.5 31.5h2q2 2 2 4q6 8 10 14.5t12 16.5q16 14 26.5 34.5 t10.5 43.5q0 16 -14 41.5t-37 44.5q-23 23 -50.5 36t-62.5 13q-23 0 -51.5 -10t-50.5 -29q-23 -20 -39 -42.5t-16 -53.5z" />
<glyph unicode="'" horiz-adv-x="385" d="M124.5 1069.5q-9.5 40.5 6.5 114.5q16 53 30.5 115.5t24.5 127.5h115l-102 -452q-29 6 -49 31q-16 23 -25.5 63.5z" />
<glyph unicode="(" horiz-adv-x="454" d="M123 526q0 84 20.5 190.5t48 211t56 193.5t47.5 139h76q-8 -23 -33 -99t-55 -174q-18 -57 -35 -119.5t-29 -124t-19 -118t-7 -99.5q0 -45 7 -102t19 -119.5t28.5 -126t35.5 -121.5q31 -104 55 -179t33 -101h-76q-18 49 -47 140t-56.5 197.5t-48 216t-20.5 195.5z" />
<glyph unicode=")" horiz-adv-x="450" d="M86 -219q8 23 32.5 97.5t55.5 172.5q18 57 33.5 119.5t28 123t19.5 117t7 99.5q0 45 -7 101.5t-19.5 119t-27.5 125t-34 119.5q-31 104 -55.5 178t-32.5 100h76q18 -49 47 -139t56.5 -195.5t47 -214t19.5 -194.5q0 -84 -19.5 -190.5t-47 -210t-56.5 -191.5t-47 -137h-76z " />
<glyph unicode="*" horiz-adv-x="835" d="M4 1626v8v-8zM150 1044q0 20 12 37q10 14 36.5 25.5t77.5 11.5h74l-121 125q23 23 49.5 20t49.5 -18q25 -16 49 -47q6 -10 14 -18q14 -18 43 -43q27 25 43 43q8 8 17 18q25 31 51 47q23 14 50.5 17.5t51.5 -19.5l-125 -125h60q37 4 67 -2q27 -4 48.5 -20.5t21.5 -51.5 h-193q16 -16 31.5 -32.5t32.5 -30.5q37 -37 47 -63.5t8 -45.5q-2 -23 -16 -34l-195 194l-194 -194q-12 12 -15 34q-2 18 9.5 45t48.5 64q14 14 29.5 30.5t29.5 32.5h-192z" />
<glyph unicode="+" horiz-adv-x="1003" d="M162 483q-2 20 12 37q10 14 39 26.5t82 12.5h172v307q18 -2 35 -14q14 -12 25.5 -38t11.5 -79v-176h166q39 4 71 -2q29 -4 51.5 -21.5t22.5 -52.5h-311v-157q6 -41 0 -72q-4 -29 -20.5 -50.5t-51.5 -21.5v301h-305z" />
<glyph unicode="," horiz-adv-x="217" d="M31 -201l78 334q20 -4 34 -22q12 -16 18.5 -47t-5.5 -84q-10 -37 -19.5 -84.5t-21.5 -96.5h-84z" />
<glyph unicode="-" horiz-adv-x="661" d="M63 487q-2 33 19 58q16 23 57 39t121 18h91h40h11h6q57 4 104 -4q41 -8 73.5 -32.5t32.5 -78.5h-555z" />
<glyph unicode="." horiz-adv-x="184" d="M47 80v72q23 2 41 -7q16 -6 29.5 -20t13.5 -45q2 -16 4 -30.5t2 -24.5v-25q-23 -2 -43 6q-16 6 -30.5 22.5t-16.5 51.5z" />
<glyph unicode="/" horiz-adv-x="632" d="M120 60q-3 28 13 75q8 23 24.5 74t38 118.5t46 146.5t49.5 157q57 184 127 403q8 37 24 62q12 23 34 38t54 5l-366 -1143q-20 6 -31 22q-10 14 -13 42z" />
<glyph unicode="0" horiz-adv-x="1064" d="M113 573q0 123 30.5 226.5t85.5 183.5q57 80 134 130t169 50t171 -50t133 -130q55 -80 88.5 -183.5t33.5 -226.5q0 -121 -33.5 -225t-88.5 -188q-53 -82 -132 -129t-172 -47q-92 0 -169 47t-134 129q-55 84 -85.5 188.5t-30.5 224.5zM203 573q0 -109 28.5 -200.5 t73.5 -161.5q47 -66 105.5 -101.5t121.5 -35.5t123 35.5t107 101.5q47 70 74.5 162t27.5 200q0 104 -27.5 196.5t-74.5 160.5t-106.5 105.5t-123.5 37.5q-63 0 -121.5 -37.5t-105.5 -105.5q-45 -68 -73.5 -160t-28.5 -197z" />
<glyph unicode="1" horiz-adv-x="555" d="M123 1139h307v-1010v-133q-25 -2 -43 12q-16 10 -29.5 39t-13.5 82v918l-92 6q-51 0 -78 13t-37 30q-14 18 -14 43z" />
<glyph unicode="2" horiz-adv-x="1046" d="M154 -2v57v33q20 25 65 67t100 97q72 72 154 159t160 173q55 66 81.5 136.5t26.5 135.5q0 92 -57 148q-23 23 -67 40t-103 17h-4q-51 0 -87 -8.5t-60.5 -21.5t-41 -31.5t-28.5 -36.5q-16 -29 -24.5 -56.5t-8.5 -44.5h-90q0 23 9 64t34 82q35 59 107.5 104t189.5 41h4 q78 0 136.5 -22.5t101.5 -63.5q80 -90 79 -211q0 -84 -34.5 -169t-96.5 -159q-76 -92 -161.5 -180t-157.5 -160q-27 -29 -52.5 -54t-45.5 -46h475q53 -4 79.5 -18.5t36.5 -30.5q12 -18 11 -41h-731z" />
<glyph unicode="3" horiz-adv-x="745" d="M104 0v94q4 -4 11.5 -5t15.5 -3q20 -4 45 -8t55 -4q53 0 109.5 11t103.5 38q98 51 117 147v37q0 84 -43 130t-102 77q-59 29 -119.5 39t-81.5 10v90q66 0 126 21.5t103 52.5q47 37 72 78t25 72q0 70 -18.5 102.5t-51.5 56.5q-29 20 -70 28.5t-84 8.5q-45 0 -89 -6 t-76 -14q-31 0 -48 -11v95q41 8 94.5 17t118.5 9q53 0 107.5 -10t99.5 -41q47 -37 76 -95.5t29 -139.5q0 -66 -36 -122.5t-97 -97.5q-14 -14 -34 -23t-40 -22q8 -4 18.5 -8t20.5 -8q35 -16 69.5 -42t61 -62.5t43 -83t16.5 -101.5v-47q-12 -78 -59 -131t-107 -88 q-59 -31 -126.5 -44t-127.5 -13q-70 0 -122 16h-5z" />
<glyph unicode="4" horiz-adv-x="921" d="M45 266v584q20 0 41 -12q16 -10 30.5 -37t18.5 -80l4 -211v-158h434v643q2 53 16.5 81t31.5 38q20 12 43 12v-774h196q2 -20 -10 -39q-10 -16 -36 -29.5t-79 -17.5h-71v-266q-23 -2 -43 10q-16 10 -31 36t-17 79v141h-528z" />
<glyph unicode="5" horiz-adv-x="886" d="M123 561l31 582h213q43 0 86 -1t80.5 -2t68.5 -2t49 -1q35 0 53.5 -15.5t28.5 -31.5q10 -20 15 -46h-506l-15 -397h29q16 0 44 -2t71 -4q29 -2 77 -9t102 -24.5t105.5 -47.5t86 -77t46 -113.5t-17.5 -156.5q-23 -68 -57.5 -112t-78.5 -68.5t-93 -32.5t-97 -8 q-113 2 -239 49l37 78q96 -39 179 -44t144.5 20.5t97 79.5t39.5 134q2 80 -35.5 127t-84.5 72q-53 29 -123 39t-129.5 14t-106.5 4q-53 0 -100 -4z" />
<glyph unicode="6" horiz-adv-x="1026" d="M136 618.5q1 71.5 1 118.5q2 68 16.5 144.5t54.5 142.5t112.5 109t193.5 45q59 0 107.5 -11.5t87.5 -31t66.5 -44t47.5 -51.5q47 -61 68 -141h-92q-23 72 -70 112t-94 56q-55 20 -117 23q-59 -2 -103 -16.5t-76 -37t-53.5 -50.5t-33.5 -56q-31 -68 -31 -152h174 q41 -2 95.5 -6t111.5 -16.5t113.5 -38t98.5 -70.5t66.5 -111.5t20.5 -162.5q-4 -72 -22.5 -126t-46 -94t-61.5 -67t-69 -43q-82 -39 -184 -39q-106 0 -176 41t-113 107.5t-62.5 148.5t-25.5 164t-5 153.5zM223 684l4 -311q16 -82 54 -148q33 -55 90 -101t153 -46 q94 0 153.5 37t92.5 86t45 97t14 71q2 14 0 45.5t-18 71.5t-53 80t-104.5 70t-173 45t-257.5 3z" />
<glyph unicode="7" horiz-adv-x="839" d="M119 1044q-4 23 8 43q10 16 35.5 29.5t79.5 18.5h497v-101l-407 -940q-25 -47 -48.5 -65.5t-41.5 -22.5q-23 -6 -41 4l450 1034h-532z" />
<glyph unicode="8" horiz-adv-x="1024" d="M133 311q0 92 52.5 165t131.5 118q-80 37 -130 105.5t-54 160.5q2 68 32 124t81 97t118.5 63.5t143.5 22.5t142.5 -22.5t116.5 -63.5t78.5 -97t28.5 -124q0 -88 -49 -158.5t-129 -107.5q86 -41 138.5 -113.5t52.5 -169.5q0 -70 -31 -128t-82 -101t-118.5 -67.5 t-143.5 -24.5q-78 0 -146.5 24.5t-119.5 67.5t-81 101.5t-32 127.5zM221 311q6 -94 84 -159q41 -31 92.5 -51.5t114.5 -20.5q59 0 113.5 20.5t91.5 51.5q41 33 60.5 73.5t19.5 85.5q0 100 -80 166q-37 33 -91.5 49.5t-113.5 16.5q-123 0 -207 -66q-78 -66 -84 -166zM221 860 q6 -86 80 -149q41 -35 94.5 -53.5t112.5 -18.5t111.5 18.5t89.5 53.5q78 59 77 149q0 94 -77 152q-37 29 -89.5 47t-111.5 18t-112.5 -18.5t-94.5 -46.5q-74 -62 -80 -152z" />
<glyph unicode="9" horiz-adv-x="1042" d="M141 793q4 72 22.5 126t46.5 93t61.5 65.5t68.5 42.5q82 37 184 41q106 0 175 -41t109 -106.5t56.5 -147.5t21.5 -163.5t2 -153.5t-3 -119q0 -68 -11.5 -143.5t-47 -139t-106.5 -105.5t-190 -44q-61 -2 -109 9t-85 30.5t-65.5 44t-49.5 49.5q-49 59 -69 137h94 q23 -74 67.5 -114.5t92.5 -59.5q53 -23 118 -26q119 4 178.5 56t81.5 116q27 74 23 166h-160q-61 2 -150 9t-170 43t-136.5 113.5t-49.5 221.5zM220 745q1 -32 15.5 -70t48 -78t99.5 -68.5t169 -43t255 -2.5l-4 310q-12 80 -47 143q-29 53 -84.5 99t-151.5 46 q-94 0 -151.5 -36.5t-90 -86t-44 -97t-13.5 -70.5q-2 -14 -1 -46z" />
<glyph unicode=":" horiz-adv-x="313" d="M113 150v30q25 2 47 -6q18 -8 33.5 -25.5t15.5 -54.5q2 -16 4 -33.5t2 -29.5v-29q-27 0 -49 8q-18 8 -32.5 26.5t-14.5 57.5q-4 10 -5 25.5t-1 30.5zM113 850v33q25 0 47 -9q18 -8 33.5 -25.5t15.5 -51.5q2 -16 4 -32.5t2 -29.5v-28q-27 -2 -49 6q-18 6 -32.5 24.5 t-14.5 55.5q-6 25 -6 57z" />
<glyph unicode=";" horiz-adv-x="417" d="M102 -197h86q10 53 22.5 103.5t25.5 91.5q12 55 4.5 87t-19.5 48q-16 18 -39 25zM164 786v54q0 14 2 28q25 2 47 -6q18 -6 32.5 -23.5t18.5 -52.5v-86q-29 0 -51 9q-18 8 -33.5 25.5t-15.5 51.5z" />
<glyph unicode="&#x3c;" horiz-adv-x="864" d="M137 582v6v2q0 6 2 12t2 12h4q6 14 18.5 24.5t26.5 18.5t33 15q82 45 156 84q63 35 127.5 68.5t105.5 56.5q41 20 64.5 21t38.5 -3q16 -8 24 -20l-540 -291l555 -264q-8 -16 -25 -25q-14 -8 -38.5 -7t-63.5 19q-41 20 -108.5 52t-133.5 63q-76 37 -158 74q-16 6 -32 14 q-14 8 -27.5 18.5t-22.5 24.5q-8 16 -8 25z" />
<glyph unicode="=" horiz-adv-x="923" />
<glyph unicode="&#x3e;" horiz-adv-x="862" d="M127 317l561 265l-547 297q8 14 25 22q14 6 38.5 4t63.5 -22q41 -23 106.5 -59t131.5 -70q76 -39 158 -84q16 -6 32 -15q31 -18 49 -41q4 -6 4.5 -13t0.5 -13v-6v-4q0 -6 -2.5 -11.5t-6.5 -11.5q-8 -16 -21 -26.5t-26 -18.5q-14 -8 -30 -14q-84 -37 -162 -74 q-66 -31 -134.5 -63.5t-109.5 -53.5q-41 -18 -66.5 -19t-39.5 7q-16 8 -25 24z" />
<glyph unicode="?" horiz-adv-x="720" d="M84 1176q25 4 53 10q25 4 57.5 7t71.5 3q41 0 88 -6t92.5 -24.5t83 -51.5t62.5 -84q23 -43 22 -102q0 -63 -24.5 -120.5t-59 -108t-73.5 -93.5t-66 -76q-18 -20 -31.5 -34.5t-13.5 -18.5q-4 -10 -10 -48t-10 -79q-4 -27 -5.5 -49t-1.5 -39h-63q0 16 2 49t5 69t6 70.5 t7 53.5q12 29 26.5 43t33.5 37q23 23 45 49t47 53q49 55 84 119.5t35 122.5q0 33 -17 65q-29 66 -97 100.5t-144 34.5h-63.5t-49.5 -2q-12 0 -26.5 -2t-26.5 -4q-14 -2 -31 -4zM233 135v31q25 2 46 -6q16 -6 31.5 -22.5t19.5 -49.5v-88q-27 -2 -47 6q-16 8 -30.5 26.5 t-14.5 55.5q-2 10 -3.5 22.5t-1.5 24.5z" />
<glyph unicode="@" horiz-adv-x="1150" d="M86 502v8q2 98 41 193.5t104.5 169t152.5 118.5t185 45h19q94 -4 177 -39.5t146.5 -90t100.5 -122t39 -137.5v-18q-8 -61 -30 -133t-54 -136q-35 -63 -82 -110t-115 -47h-14t-15 2q-43 6 -73 47q-12 14 -13 31q-45 -41 -96 -54.5t-84 -13.5h-4h-39h-4v2q-4 0 -24.5 9.5 t-47.5 35.5q-27 25 -47 73t-20 114v24t2 25q8 82 45 143t84 96q51 37 103 54.5t98 17.5h18q45 -6 74.5 -30.5t48.5 -51.5q4 12 7 23.5t7 23.5l72 -24q-51 -145 -89 -253t-38 -163q0 -33 6 -41q4 -4 11 -10.5t20 -8.5h12q31 -4 65.5 31t67.5 90q29 57 49.5 122t24.5 118v12 q2 47 -28.5 101.5t-85 101.5t-126 79t-153.5 36h-15q-78 0 -151.5 -39t-130 -103.5t-92 -147.5t-37.5 -171v-2q0 -86 36.5 -160t96 -130t137.5 -91t162 -43q8 -4 16 -5t15 -1q55 0 103 18.5t86 45t65.5 55t44.5 49.5q10 10 18 22q4 6 4 8l66 -43q-2 0 -29 -34.5t-76 -76.5 t-119.5 -78t-162.5 -38h-18.5t-18.5 4q-96 10 -185.5 50t-159 104.5t-111.5 151.5t-42 192zM362 449q0 -49 11.5 -80t26 -47.5t27.5 -24.5t19 -10h25q18 2 45 6t53.5 18.5t50 41t39.5 75.5q10 45 28 97.5t40 111.5v4q-4 8 -9 17.5t-9 23.5q-16 18 -36 33.5t-42 15.5h-10 q-33 0 -74 -13t-80 -42t-67.5 -74t-37.5 -110v-43z" />
<glyph unicode="A" horiz-adv-x="1024" d="M41 74q4 23 16 51q92 231 170 420q33 80 66 159.5t59.5 147.5t46 116t25.5 64q12 35 26.5 51.5t28.5 26.5q14 8 31 12q25 -4 41 -18t27 -31q10 -20 18 -41q92 -225 170 -414q33 -80 65.5 -159.5t60.5 -147t48.5 -117t28.5 -69.5q15 -39 15 -62q0 -25 -11 -40 q-10 -16 -29 -23l-133 324h-606q-29 -70 -51 -131q-23 -53 -43.5 -107.5t-34.5 -85.5q-25 10 -32 32q-4 14 -4 27q0 7 1 15zM233 387h551l-274 676z" />
<glyph unicode="B" horiz-adv-x="987" d="M127 0v1120h426q76 -8 124 -34.5t75.5 -63.5t38 -81t10.5 -89v-12q1 -39 -11 -73q-14 -40 -38.5 -74t-54 -59.5t-60.5 -39.5q43 -12 84 -40t72.5 -68t51 -88t19.5 -101q0 -51 -13 -90t-33.5 -70t-48.5 -53.5t-54 -36.5q-66 -37 -148 -47h-440zM197 63h366q63 14 117 43 q43 25 80 68t39 115q0 72 -33 123t-78 82.5t-87 46t-60 14.5h-152v66h160q51 20 90 53q35 29 63.5 69.5t28.5 96.5v16q0 98 -46 140q-50 46 -144 59h-344v-992z" />
<glyph unicode="C" horiz-adv-x="1024" d="M113 305v4v512q0 4 9 53.5t50 108.5q39 63 123 113.5t223 50.5q137 0 221 -50t127 -114q39 -59 49.5 -108.5t10.5 -53.5l-68 -4v2q0 2 -4 10v9.5t-4 17.5q-6 18 -16.5 44t-28.5 48q-16 23 -39 45.5t-56.5 41t-80.5 30.5t-111 14q-111 0 -173 -33.5t-97 -74.5t-49.5 -83 t-18.5 -59v-12v-504v-8q0 -6 2 -13t6 -18q6 -18 15.5 -40.5t25.5 -43.5q18 -25 42 -47t57.5 -39.5t80 -29t109.5 -11.5q111 0 171.5 31t96.5 74q35 37 49.5 78t18.5 55v12l68 -8q0 -25 -9 -49q-6 -23 -18 -49.5t-33 -54.5q-23 -31 -53.5 -60t-72.5 -51.5t-96 -35.5t-122 -13 t-123 13t-97 35.5t-73.5 51.5t-52.5 60q-41 55 -50 102t-9 51z" />
<glyph unicode="D" horiz-adv-x="1024" d="M98 -2v1087v35l441 4q63 0 114.5 -14t90 -36.5t65.5 -51.5t45 -57q39 -61 47 -108.5t8 -51.5v-4v-502q0 -51 -16 -92t-44 -72t-61.5 -52.5t-66.5 -33.5q-33 -16 -64.5 -26.5t-56.5 -15.5t-40 -7t-17 -2h-445zM164 68h375q4 0 15 1t32 7q23 4 51.5 12t56.5 18 q59 29 103.5 74t44.5 119v502v2q0 2 -1 3t-1 3v12t-4 19q-6 16 -14.5 39.5t-24.5 46.5q-29 49 -87.5 89t-166.5 40h-379v-987z" />
<glyph unicode="E" horiz-adv-x="921" d="M129 -2v1124h645q0 -29 -17.5 -43t-37.5 -18q-23 -8 -53 -4h-471v-451h405q0 -25 -13.5 -38t-29.5 -19q-20 -8 -43 -10h-315v-473h579q0 -27 -16.5 -40.5t-36.5 -19.5q-23 -8 -51 -8h-545z" />
<glyph unicode="F" horiz-adv-x="821" d="M88 0v1122h641q0 -27 -16.5 -40t-34.5 -19q-23 -8 -49 -6h-475v-451h405q0 -25 -13.5 -38t-29.5 -19q-20 -8 -43 -10h-319v-539h-66z" />
<glyph unicode="G" horiz-adv-x="1042" d="M113 317v504q12 90 61 160q20 31 50 59.5t72 51t96 37t126 14.5q70 0 125 -13.5t96 -36t72 -51t51 -59.5q49 -70 64 -158h-70q-2 10 -14.5 50t-49 85.5t-102 81t-172.5 37.5q-109 0 -174 -41t-100 -88q-41 -57 -60 -129v-504q20 -123 110.5 -192.5t211.5 -69.5 q125 0 195.5 41t105.5 90q41 57 51 131v179h-305q0 27 15.5 42t33.5 21q23 8 51 8h277v-245q0 -35 -19.5 -92.5t-68.5 -112t-132 -94t-208 -39.5q-63 0 -113.5 14t-89.5 36.5t-67.5 53.5t-49.5 62q-49 74 -69 167z" />
<glyph unicode="H" horiz-adv-x="1085" d="M154 92v1030q29 0 42 -15t19 -34q8 -23 6 -49v-1026q-27 0 -40 14.5t-19 32.5q-8 20 -8 47zM240 621h596q0 -18 -11 -33q-10 -12 -32.5 -21.5t-67.5 -9.5h-367q-35 -4 -59 2q-23 4 -41 18.5t-18 43.5zM856 92v1030q27 0 40 -15t19 -34q7 -20 7 -43v-6v-1026 q-25 0 -38.5 14.5t-19.5 32.5q-8 20 -8 47z" />
<glyph unicode="I" horiz-adv-x="335" d="M154 94v1030q29 0 42 -15t19 -34q8 -23 8 -49v-1026q-27 0 -41 14.5t-20 32.5q-8 20 -8 47z" />
<glyph unicode="J" horiz-adv-x="800" d="M33 180h82q31 -49 78 -86q41 -31 101 -50q33 -10 73 -10q35 0 75 7q57 10 95 43t59.5 76t32 93t12.5 95q1 30 1 56v26q-1 37 -1 53v639h7q14 0 28 -6q14 -8 25.5 -26.5t11.5 -53.5v-645q0 -61 -11 -123q-10 -53 -33.5 -112.5t-70.5 -106.5q-29 -29 -75 -47t-101 -26 q-26 -3 -53 -3q-30 0 -61 5q-60 8 -118 36q-33 18 -60.5 46t-49.5 55q-25 31 -47 65z" />
<glyph unicode="K" horiz-adv-x="847" d="M121 96v1030q29 0 42 -15t19 -34q8 -23 6 -49v-391l457 440q20 20 43 33q18 10 40 12t42 -16l-500 -481l457 -504q23 -18 33 -41q10 -18 10 -41t-20 -43q-8 10 -48 55t-96.5 106.5t-122 133t-125 137.5t-105.5 117t-65 71v-612q-27 0 -40 14.5t-19 30.5q-8 20 -8 47z" />
<glyph unicode="L" horiz-adv-x="798" d="M96 100v1024q29 0 44.5 -17t21.5 -38q8 -23 6 -53v-944h471q29 0 46 -11.5t28 -25.5q10 -16 14 -35h-524q-43 0 -64.5 15.5t-32.5 33.5q-10 23 -10 51z" />
<glyph unicode="M" horiz-adv-x="1249" d="M135 121v901q2 27 10 49q6 18 19.5 33.5t36.5 15.5h7q28 0 46 -30q20 -34 35 -68q4 -8 20.5 -47t41 -96.5t55 -129t61.5 -145.5q72 -172 164 -387l344 805q10 29 26 51q12 17 31 33q17 14 36 14h5q23 -2 33 -20.5t16 -40.5q6 -27 8 -60v-872v-14q0 -26 -6 -45 q-6 -23 -19 -41.5t-40 -18.5v1049l-356 -836q-10 -18 -21 -33q-10 -12 -24.5 -21t-32.5 -9q-20 0 -33.5 9t-24.5 21q-10 14 -16 33l-356 836v-1053q-18 0 -33 12q-12 10 -22.5 34t-10.5 71z" />
<glyph unicode="N" horiz-adv-x="1087" d="M121 121v905q-1 5 -1 10q0 15 5 29q4 16 13 29.5t30 21.5q14 6 26 6q22 0 40 -18q28 -28 57 -78q8 -12 38.5 -60t76 -119t100.5 -157t110 -174q131 -207 293 -461v1071q18 -2 33 -12q12 -10 22.5 -30.5t10.5 -57.5v-905v-15q0 -22 -4 -38q-4 -23 -16.5 -41.5t-34.5 -24.5 q-8 -3 -15 -3q-15 1 -29 11q-22 16 -40.5 38t-31.5 44.5t-20 28.5q-2 4 -28.5 47t-69.5 110.5t-96 152.5t-109 173q-129 207 -295 467v-1069q-18 0 -32 12q-12 10 -22.5 35t-10.5 72z" />
<glyph unicode="O" horiz-adv-x="1167" d="M113 565q2 119 39.5 224.5t102 185.5t154 126t191.5 46t190.5 -46t153 -126t102 -185.5t39.5 -224.5q-2 -119 -39.5 -224t-102 -185t-153 -126t-190.5 -46t-191.5 46t-154 126t-102 185t-39.5 224zM184 565q0 -109 33 -202t90 -162q55 -72 131 -111t162 -39t161 39 t132 111q55 70 88 163t33 201q0 111 -33 204t-88 165q-57 68 -132 106.5t-161 38.5t-162 -38.5t-131 -106.5q-57 -72 -90 -165t-33 -204z" />
<glyph unicode="P" horiz-adv-x="913" d="M139 119v903q0 35 9.5 55.5t21.5 30.5t31 14h352q53 0 103.5 -17.5t90 -56t63.5 -101t24 -154.5t-43 -144.5t-97 -81.5q-61 -33 -137 -43h-356v-526q-23 0 -35 18.5t-19 40.5q-8 27 -8 62zM209 586h344q59 8 106 35q41 23 75 64.5t34 113.5q0 70 -21.5 120t-53 80.5 t-70.5 44.5q-34 13 -65 13h-9q-35 -2 -92.5 -3t-112.5 -1h-135v-467z" />
<glyph unicode="Q" horiz-adv-x="1187" d="M94 578q0 119 38 224t103.5 185t153.5 126t191 46q102 0 190 -46t152.5 -126t101.5 -185.5t37 -223.5q0 -152 -59.5 -281t-159.5 -209h282q0 -27 -15 -40t-34 -19q-23 -8 -49 -9h-311q-35 -10 -68 -16t-67 -6q-102 0 -190.5 46t-154 125t-103.5 184.5t-38 224.5zM162 578 q0 -106 35 -199.5t92 -163.5q55 -72 130 -110.5t161 -38.5q84 0 158.5 38.5t133.5 110.5q57 70 90 163t33 200q0 111 -32.5 203.5t-90.5 164.5q-59 68 -133.5 107t-158.5 39q-86 0 -161 -39t-130 -107q-57 -72 -92 -165t-35 -203z" />
<glyph unicode="R" horiz-adv-x="935" d="M127 119v901q0 39 10 59.5t25 30.5q14 10 35 12h352q86 -4 139 -33.5t83 -74.5t39 -100.5t9 -112.5q0 -59 -15.5 -101.5t-40 -72t-54 -47t-58.5 -29.5q57 -45 88 -89t45 -81q16 -43 17 -84q4 -70 8 -131q4 -53 6 -102.5t4 -65.5q-29 0 -43 16.5t-22 38.5q-8 25 -13 58 q0 10 -2 34q-2 20 -6 58.5t-10 101.5q-8 63 -32.5 105.5t-51.5 66.5q-33 29 -70 45h-379v-524q-23 0 -35 18.5t-18 40.5q-8 27 -10 62zM197 590h358q33 0 67.5 13t63.5 41t47.5 68t18.5 95q0 86 -31 135t-68 74q-43 29 -98 37h-358v-463z" />
<glyph unicode="S" horiz-adv-x="1015" d="M80 762q0 20 5 41.5t11 46.5q53 154 151.5 226.5t215.5 72.5h16q59 -2 116.5 -9t115.5 -36q55 -31 111.5 -86t105.5 -144h-78q-43 68 -85 108t-83 62q-47 23 -97 29t-110 10h-12q-98 -4 -175 -60t-124 -194q-16 -39 -17 -67q0 -14 5.5 -23.5t13.5 -19.5q20 -20 65 -37 q47 -14 117 -25.5t156 -29.5q98 -23 174 -50.5t128 -51t79.5 -40t29.5 -16.5l17 -6v-21q0 -115 -24.5 -200.5t-78.5 -141.5q-53 -55 -132 -79.5t-181 -30.5h-16q-92 2 -164 34.5t-122 75.5t-82 84t-44 60h84q10 -16 25.5 -33.5t38.5 -38.5q45 -41 111.5 -77t152.5 -36h12 q98 4 161.5 25.5t102.5 65.5q41 41 63.5 105t24.5 167q-2 4 -5 4t-7 4q-27 14 -72 35q-49 23 -122.5 48.5t-170.5 47.5q-61 14 -115.5 22.5t-100.5 18.5t-83.5 24.5t-66.5 41.5q-41 37 -41 94z" />
<glyph unicode="T" horiz-adv-x="919" d="M76 1059q0 14 10 28q10 10 30.5 21.5t63.5 15.5h529h18q45 0 68.5 -10t33.5 -22q10 -14 11 -33h-131h-222v-1061q-25 0 -38 15.5t-19 33.5q-8 23 -8 49v963h-242h-104z" />
<glyph unicode="U" horiz-adv-x="1040" d="M127 276v785q2 18 10 33q6 12 19.5 22t36.5 10v-845q14 -63 55 -113q35 -43 99.5 -78t174.5 -35q109 0 170.5 35t95.5 76q37 49 54 110v850q18 0 35 -8q14 -6 25 -20.5t11 -36.5v-774q-14 -84 -61 -150q-41 -57 -118 -103t-212 -46q-137 0 -216 45t-118 98 q-47 63 -61 145z" />
<glyph unicode="V" horiz-adv-x="1093" d="M78 1055v9q0 16 5 30q7 18 32 28l432 -1069l432 1069q18 -6 27 -20t9 -39q0 -23 -14 -59q-8 -18 -27.5 -68.5t-46 -118t-59 -148.5t-65.5 -161q-78 -188 -170 -418q-8 -25 -21 -45q-10 -16 -26.5 -30.5t-38.5 -14.5q-23 0 -39 14.5t-27 30.5q-12 20 -20 45l-371 914 q-10 29 -12 51z" />
<glyph unicode="W" horiz-adv-x="1699" d="M70 1044q-2 10 -2 19q0 13 4 27q6 24 34 34l435 -1069l293 729h38l295 -729l430 1065q20 -6 29 -22q8 -14 8 -42t-22 -75q-10 -25 -31.5 -77t-49.5 -119.5t-59.5 -145.5t-62.5 -156q-74 -184 -162 -399q-6 -23 -16 -41q-10 -16 -25.5 -28.5t-38.5 -12.5t-39 12.5 t-26 28.5q-12 18 -21 41l-227 567l-229 -567q-8 -23 -21 -41q-10 -16 -25.5 -28.5t-37.5 -12.5q-23 0 -38.5 12.5t-25.5 28.5q-10 18 -18 41l-369 901q-16 33 -20 59z" />
<glyph unicode="X" horiz-adv-x="1007" d="M25 14q6 6 26.5 34t51 69t68.5 90t77 100q90 119 201 264l-324 428q-18 25 -27 48q-8 20 -6 40.5t25 36.5l375 -497l372 497q14 -10 21 -26q4 -16 0 -40t-31 -59q-14 -18 -34.5 -45.5t-45 -61.5t-52.5 -71t-54 -71q-63 -84 -133 -179l419 -557q-14 -12 -32 -12 q-16 0 -38 12.5t-50 51.5q-14 18 -37 46.5t-49.5 64.5t-56 75t-58.5 76q-68 88 -141 188l-349 -455q-16 -25 -37 -41q-16 -14 -38 -19q-5 -1 -9 -1q-17 0 -34 14z" />
<glyph unicode="Y" horiz-adv-x="811" d="M61 1090q2 20 25 34l317 -506l320 506q20 -14 23 -34v-12q0 -13 -3 -25q-6 -23 -18 -45l-287 -463v-449q0 -27 -8 -49q-6 -18 -19.5 -33.5t-37.5 -15.5v547l-291 463q-12 23 -19 45q-3 12 -3 25q0 6 1 12z" />
<glyph unicode="Z" horiz-adv-x="921" d="M66 80q4 24 20 49q4 6 34 48t76 108.5t103 148.5t117 168q139 201 313 451h-606q-4 18 8 34q10 12 36 23.5t79 11.5t153.5 -1t204.5 -1q119 -2 256 -2l-733 -1048h618q29 0 52 -9q18 -6 34.5 -19t16.5 -42h-688q-16 0 -33 4q-14 4 -29.5 12.5t-25.5 26.5q-7 9 -7 24 q0 6 1 13z" />
<glyph unicode="[" horiz-adv-x="514" d="M143 6v1118q-4 43 4 80q6 31 24.5 57.5t57.5 30.5h4q59 -4 87 -17t38 -30q10 -20 7 -43h-156v-1270h156q6 -25 -5 -43q-10 -16 -38.5 -28.5t-92.5 -12.5q-8 0 -22 5.5t-28.5 21.5t-25 47t-10.5 84z" />
<glyph unicode="\" horiz-adv-x="630" />
<glyph unicode="]" horiz-adv-x="514" d="M137 -63h156v1269h-156q-6 23 4 41q10 16 39 29.5t92 13.5q8 0 22.5 -5t29 -21.5t24.5 -47t10 -83.5v-1119q4 -43 -4 -80q-6 -31 -24.5 -57.5t-57.5 -30.5h-4q-59 2 -86.5 16.5t-38.5 31.5q-10 20 -6 43z" />
<glyph unicode="^" horiz-adv-x="614" d="M65 989q1 21 17 53q16 33 40.5 85.5t51.5 105.5q29 59 64 127q4 12 12 24q6 10 16 21.5t23 17.5q4 4 16 4h2h4q12 0 19 -4q10 -6 19 -17t16 -22q8 -12 12 -24q33 -68 63 -127q27 -53 53 -105.5t42 -85.5t18 -53t-2 -31q-6 -14 -19 -20l-225 442l-221 -442q-12 6 -18 20 q-4 10 -3 31z" />
<glyph unicode="_" horiz-adv-x="845" d="M10 -150q6 39 31 58.5t53 25.5q33 8 72 5h518q66 0 96.5 -14.5t42.5 -30.5q14 -20 11 -44h-824z" />
<glyph unicode="`" horiz-adv-x="614" />
<glyph unicode="a" horiz-adv-x="825" d="M90 614q4 4 15.5 46t41.5 85q35 45 97.5 82t161.5 37q51 0 92 -12t73.5 -31.5t57 -43t41.5 -48.5q18 -27 29.5 -50.5t19.5 -41.5q8 -23 12 -41v-6v-467v-2q0 -47 -11 -69.5t-24 -33.5q-16 -10 -34 -8v78q-18 -18 -41 -31.5t-46 -25.5q-47 -25 -93 -35t-76 -10 q-72 0 -128.5 28.5t-93.5 69.5q-41 43 -63.5 92t-22.5 92q0 104 51.5 167t112.5 89q53 25 98.5 31t67.5 6v4q47 0 70.5 -11t33.5 -24q10 -16 11 -34l-115 -4q-16 0 -56 -4.5t-81 -26.5q-49 -23 -84 -65t-39 -128q0 -25 17.5 -63.5t47.5 -71.5q31 -35 75 -56.5t98 -21.5 q23 0 59.5 9.5t77.5 27.5q41 23 74.5 52.5t44.5 70.5v369v2q-2 8 -3.5 13t-5.5 11q-4 16 -14 37t-27 41q-31 41 -77 73t-129 32q-72 0 -117 -21.5t-74 -50.5q-23 -29 -36 -57.5t-17 -40.5v-9h-72z" />
<glyph unicode="b" horiz-adv-x="921" d="M102 119v4v4v963v116q18 0 35 -10q12 -10 23.5 -33.5t11.5 -68.5q0 -4 2 -4h2h-4v-404q51 80 127 131t170 51q76 0 142.5 -35.5t115.5 -96t76.5 -140.5t27.5 -170t-27.5 -170t-76.5 -140.5t-115.5 -96t-142.5 -37.5q-94 0 -170 50t-127 136v-41h4v-117q-18 0 -35 10 q-14 10 -25.5 32t-13.5 67zM176 426q0 -80 23.5 -148.5t64.5 -117.5q39 -49 92.5 -79t112.5 -30t110.5 30t90.5 79q41 49 66.5 117.5t25.5 148.5q0 78 -25.5 147.5t-66.5 116.5q-39 53 -90.5 80t-110.5 27t-112.5 -27t-92.5 -80q-41 -47 -64.5 -116.5t-23.5 -147.5z" />
<glyph unicode="c" horiz-adv-x="892" d="M100 225v4v396v4q0 4 8.5 40t47.5 81q35 47 107.5 83.5t195.5 36.5q119 0 189.5 -45t105.5 -98q29 -47 35 -85t6 -50h-70q-4 10 -9 38.5t-24 59.5q-27 41 -78 73t-155 32q-98 0 -151.5 -21.5t-82.5 -50.5t-39 -56.5t-10 -37.5v-4v-387v-5q0 -4 2 -7t6 -13q6 -25 37 -61 q33 -35 83 -66t142 -31q70 2 115 15.5t73 30t41 35t17 28.5h74q-4 -6 -13.5 -34t-39.5 -58q-35 -35 -99.5 -61.5t-167.5 -26.5q-106 0 -174.5 38.5t-103.5 81.5q-39 45 -53.5 81t-14.5 40z" />
<glyph unicode="d" horiz-adv-x="909" d="M86 436q0 90 27.5 172t77 143.5t118 97.5t148.5 36q94 0 172 -51.5t127 -133.5v412v4q0 47 10 69.5t25 33.5q16 10 36 12v-119v-985v-4v-4q-2 -45 -13 -66.5t-23 -32.5q-16 -10 -35 -10v117v41q-49 -86 -127 -137t-172 -51q-80 2 -148.5 38.5t-118 99t-77 144.5 t-27.5 174zM158 436q0 -86 23.5 -155.5t64.5 -118.5q41 -53 96 -82t115 -29q57 0 111.5 29t95.5 82q41 49 64.5 118.5t23.5 155.5q0 78 -23.5 146.5t-64.5 122.5q-41 53 -95.5 80.5t-111.5 27.5q-59 0 -114.5 -27.5t-96.5 -80.5t-64.5 -122t-23.5 -147z" />
<glyph unicode="e" horiz-adv-x="931" d="M123 231v5v4v366v4v4q16 90 70.5 139.5t113.5 73.5q43 14 96 23q26 2 56 3q23 0 47 -2q58 -3 123 -32q33 -14 65.5 -35.5t60 -53.5t43.5 -74q15 -37 15 -84v-11v-11q1 -41 -13 -73q-16 -37 -41.5 -65.5t-59 -49t-66.5 -32.5q-61 -23 -120.5 -28t-90.5 -9v74q29 0 81 5 t105 23q59 25 97 63t38 103q0 61 -24.5 100t-61.5 64q-68 43 -127 55q-41 8 -75 8q-15 0 -29 -2q-53 -6 -94 -24q-47 -23 -87 -57.5t-52 -102.5v-358v-4q0 -4 8 -21q6 -12 15 -29.5t26 -35.5q29 -35 80 -65t141 -30h4q68 0 114 16.5t75.5 39t46 47t24.5 41.5h74 q-4 -12 -17.5 -42t-44.5 -65q-37 -41 -102.5 -75.5t-167.5 -34.5h-6q-104 4 -173 39.5t-106 83.5q-37 47 -49 82.5t-12 39.5z" />
<glyph unicode="f" horiz-adv-x="565" d="M35 739q0 18 8 33q8 12 26.5 23.5t57.5 11.5h82q-3 23 -3 47t3 49q4 41 17.5 87t45.5 85q33 37 71 57.5t75 31t68.5 13.5t54.5 3v-70q-43 0 -82 -8q-35 -8 -70 -24.5t-59 -47.5q-25 -33 -36 -69.5t-15 -71.5q-4 -26 -4 -52q0 -13 1 -26h207v-72h-207v-735h-6 q-16 0 -28 10t-22.5 36t-10.5 79v610h-174z" />
<glyph unicode="g" horiz-adv-x="1005" d="M133 432q0 92 27.5 175t77 145.5t117 98.5t147.5 36q96 0 172 -51.5t127 -133.5v58v123q18 0 35 -11q12 -10 23 -32.5t13 -65.5v-850v-4q-4 -4 -16 -41t-47 -84q-35 -45 -95.5 -86t-152.5 -41q-86 2 -147.5 30t-102.5 61.5t-62.5 64.5t-23.5 37h88q6 -10 15.5 -20.5 t23.5 -20.5q35 -29 86 -52.5t123 -23.5h10q45 0 80 16q39 17 66.5 42.5t44 54t26.5 51.5q6 10 7.5 15t5.5 9v236q-51 -82 -127 -133t-172 -51q-80 0 -147.5 35.5t-117 97t-77 142.5t-27.5 173zM205 432q0 -78 23.5 -147.5t64.5 -120.5t95 -80t114 -29q57 0 111.5 29t95.5 80 t64.5 120.5t23.5 147.5q0 84 -23.5 153.5t-64.5 121.5q-41 51 -95.5 79.5t-111.5 28.5q-59 0 -113.5 -28.5t-95.5 -79.5t-64.5 -121t-23.5 -154z" />
<glyph unicode="h" horiz-adv-x="864" d="M154 121v950q0 31 8 53q6 20 19.5 38t39.5 18v-467q27 35 64 61q31 23 76 42.5t104 23.5h11q52 0 96 -18q48 -20 84 -55.5t60.5 -83.5t37.5 -103v-480q-2 -27 -11 -47q-8 -18 -22 -32.5t-39 -14.5v563q-12 57 -39 103q-23 40 -65 70q-37 27 -94 26h-15q-70 -4 -117 -30.5 t-76 -57.5q-35 -37 -55 -82v-592h-6q-17 0 -29 10t-22 34t-10 71z" />
<glyph unicode="i" horiz-adv-x="370" d="M152 121v741h73v-741v-113q-20 0 -37 10q-14 10 -24 33t-10 70h-2zM154 1067v96q18 0 34 -10q14 -10 25.5 -29.5t11.5 -56.5v-98q-20 0 -37 10q-14 10 -24 29.5t-10 58.5z" />
<glyph unicode="j" horiz-adv-x="489" d="M0 -276q100 0 158.5 29.5t91.5 68.5q33 41 44 78t15 57v4v887h74v-887v-4q0 -25 -8 -49q-6 -23 -17.5 -50.5t-29.5 -56.5q-20 -29 -49 -55.5t-69 -48t-91 -34.5t-115 -13h-4v74zM309 1063v98q20 0 37 -10q14 -10 25.5 -29.5t11.5 -58.5v-100q-20 0 -37 10 q-14 10 -25.5 29.5t-11.5 60.5z" />
<glyph unicode="k" horiz-adv-x="774" d="M104 115v964v11q0 24 7 45q6 23 19 40t42 17v-670l303 295q20 18 41 29q16 10 36.5 10t41.5 -16q-33 -33 -87 -87.5t-108 -107.5q-63 -63 -133 -131l389 -385q18 -20 29 -43q10 -18 10 -39.5t-18 -42.5l-504 500v-500q-20 0 -35 12q-12 10 -22.5 33t-10.5 66z" />
<glyph unicode="l" horiz-adv-x="307" d="M119 102v979q0 41 11 60.5t24 29.5q14 10 32 11v-1080v-98h-6q-14 0 -26 8t-23.5 28.5t-11.5 61.5z" />
<glyph unicode="m" horiz-adv-x="1343" d="M90 121v645q2 29 10 51q8 20 22.5 36.5t43.5 16.5v-116q25 31 59 55q29 19 72 37q39 16 87 16h11q55 -4 103.5 -18.5t86.5 -35t64.5 -44t38.5 -43.5q10 18 33.5 42.5t58.5 46t79 37t97 15.5t108.5 -15.5t99.5 -49t71 -87.5q23 -46 23 -108q0 -11 -1 -24v-467v-12 q0 -24 -6 -42q-6 -20 -21.5 -36.5t-43.5 -16.5v631q-10 41 -37 76q-23 29 -68 52t-120 28h-12q-33 1 -65 -9q-38 -12 -71 -34.5t-57.5 -54t-34.5 -66.5v-512q-2 -33 -10 -56t-21.5 -39t-42.5 -16v623q-14 45 -45 80q-27 29 -75 53t-128 26q-88 0 -151.5 -51t-81.5 -119v-51 t-1 -81t-1 -99v-106q-2 -128 -2 -275q-20 0 -37 12q-14 10 -24.5 34t-10.5 71z" />
<glyph unicode="n" horiz-adv-x="847" d="M123 137v629q0 27 8 49q6 18 20.5 34.5t41.5 16.5v-129q20 33 55 60q29 23 76 42t112 19h12q61 0 110 -18q54 -20 94 -54t61.5 -76t21.5 -85v-537q0 -25 -8 -45q-6 -16 -20.5 -29.5t-40.5 -13.5v616q-10 47 -39 84q-25 33 -70 59.5t-121 26.5t-123 -31.5t-73.5 -70.5 t-36.5 -74t-10 -39v-567q-20 0 -35 12q-14 10 -24.5 38t-10.5 83z" />
<glyph unicode="o" horiz-adv-x="897" d="M100 432q0 90 28 171t77 141.5t115.5 96.5t144.5 36t145.5 -36t116.5 -96.5t76.5 -141.5t27.5 -171t-27.5 -171t-76.5 -141.5t-116.5 -96t-145.5 -35.5t-144.5 35.5t-115.5 96t-77 141.5t-28 171zM172 432q0 -78 24.5 -147.5t65.5 -118.5q82 -106 203 -107q123 0 205 107 q43 49 66.5 118.5t23.5 147.5t-23.5 146.5t-66.5 119.5q-41 49 -93.5 78t-111.5 29t-110.5 -29t-92.5 -78q-41 -51 -65.5 -119.5t-24.5 -146.5z" />
<glyph unicode="p" horiz-adv-x="917" d="M98 -215v950v8v5q2 43 13.5 64.5t25.5 31.5q16 10 35 8v-117h-4v-37q51 82 126 132.5t167 50.5q78 0 144.5 -35t115.5 -95.5t76.5 -140.5t27.5 -172q0 -88 -27.5 -168t-76.5 -139t-115.5 -95t-144.5 -36q-92 0 -167 51t-126 131v-397h4q0 -4 -2 -5t-2 -5 q0 -45 -11.5 -67.5t-23.5 -33.5q-16 -10 -35 -10v121zM172 438q0 -78 22.5 -145.5t63.5 -118.5q41 -47 94.5 -74.5t108.5 -27.5q59 0 110.5 27.5t92.5 74.5q41 51 65.5 118.5t24.5 145.5q0 80 -24.5 148.5t-65.5 120.5q-41 47 -92.5 75.5t-110.5 28.5q-55 0 -108.5 -28.5 t-94.5 -75.5q-41 -51 -63.5 -120t-22.5 -149z" />
<glyph unicode="q" horiz-adv-x="901" d="M74 440q0 90 27.5 171t75.5 141.5t114.5 95.5t144.5 35q92 0 167 -51.5t124 -133.5v41v115q18 0 33 -8q12 -10 23.5 -30.5t13.5 -63.5v-4v-9v-958v-119q-18 0 -33 10q-12 10 -23.5 33t-13.5 68v8v403q-49 -84 -124 -134t-167 -50q-78 0 -144.5 35t-114.5 95t-75.5 140 t-27.5 170zM145 440q0 -78 21.5 -146.5t62.5 -117.5q45 -51 96.5 -78.5t110.5 -27.5q57 0 108.5 27.5t92.5 78.5q41 49 65.5 117.5t24.5 146.5q0 80 -24.5 147.5t-65.5 119.5q-41 49 -92 76.5t-109 27.5q-59 0 -110.5 -27.5t-96.5 -76.5q-41 -51 -62.5 -119t-21.5 -148z" />
<glyph unicode="r" horiz-adv-x="552" d="M88 0v760q0 23 8 43q6 16 21.5 29.5t44.5 13.5v-98q31 39 78 63q40 23 104 33q21 3 46 4q49 0 110 -14q-4 -14 -6 -25.5t-7 -22.5q-4 -10 -6 -22q-48 11 -92 11q-22 0 -43 -3q-53 -8 -106.5 -45t-77.5 -125v-504q2 -27 -6 -49q-6 -18 -21.5 -33.5t-46.5 -15.5z" />
<glyph unicode="s" horiz-adv-x="780" d="M63 207h80q12 -29 37 -62q33 -37 80 -65.5t129 -28.5q51 0 101.5 19.5t89.5 48.5q37 31 57 65.5t20 63.5t-25.5 54.5t-103.5 45.5q-72 16 -134 29.5t-115.5 29t-95.5 35t-72 47.5q-23 23 -35.5 48.5t-7.5 56.5q0 33 10 64.5t26 70.5q39 66 117 105.5t172 39.5 q47 0 95.5 -13t92.5 -40.5t79.5 -73t60.5 -106.5h-80q-41 92 -107.5 127t-140.5 35t-138.5 -34t-84.5 -75q-16 -31 -23.5 -55.5t-7.5 -44.5q0 -18 4 -29.5t17 -25.5q12 -8 31.5 -19.5t48.5 -21.5q53 -23 132 -39t173 -39q92 -20 138 -66.5t46 -105.5q0 -53 -30.5 -101.5 t-77.5 -83.5q-47 -39 -106.5 -61t-125.5 -22q-98 0 -163.5 38.5t-102.5 81.5q-45 68 -60 107z" />
<glyph unicode="t" horiz-adv-x="600" d="M43 729q0 27 14.5 41t32.5 21q20 8 47 8h92v145q0 43 10.5 65.5t22.5 32.5q14 10 34 13l3 -256h197v-70h-197v-481q20 -72 63.5 -110t86.5 -56q51 -23 108 -27q0 -12 -2 -24q-2 -10 -3 -22.5t-5 -22.5q-106 10 -169 51t-97 88q-39 53 -56 117v487h-182z" />
<glyph unicode="u" horiz-adv-x="927" d="M164 248v497q0 27 8 50q6 18 19 33.5t40 15.5v-596q12 -55 39 -96q23 -37 67 -67t118 -30q72 0 119 24.5t74.5 57.5t37.5 64.5t8 46.5v596q18 -2 33 -13q12 -10 23.5 -29.5t11.5 -56.5v-649v-16q0 -23 -4 -41q-4 -23 -17.5 -40t-42.5 -17v106q-29 -31 -65 -53 q-31 -20 -75 -36.5t-99 -16.5q-117 0 -194 66.5t-101 199.5z" />
<glyph unicode="v" horiz-adv-x="860" d="M70 778v9q0 16 5 32q7 21 34 31l319 -791l322 791q18 -6 28 -21q12 -14 12 -41q0 -24 -16 -61q-8 -20 -23.5 -58t-35 -86t-42 -103.5t-42.5 -108.5q-53 -127 -111 -275q-8 -27 -20 -47q-10 -18 -28.5 -32.5t-43.5 -14.5q-23 0 -39 14.5t-27 32.5q-12 20 -22 47l-258 631 q-10 27 -12 51z" />
<glyph unicode="w" horiz-adv-x="1513" d="M72 756q-2 10 -2 20q0 14 4 30q6 26 35 38l321 -791l309 766h37l314 -766l319 791q20 -6 31 -25q7 -14 7 -40v-6q-1 -30 -26 -81q-10 -27 -25.5 -66.5t-35 -86.5t-41 -99.5t-41.5 -103.5q-49 -119 -102 -254q-8 -25 -21 -43q-10 -16 -26.5 -29.5t-38.5 -13.5 q-25 0 -41.5 13.5t-26.5 29.5q-12 18 -21 43l-241 598l-244 -598q-8 -25 -20 -43q-10 -16 -26.5 -29.5t-39.5 -13.5t-40 13.5t-28 29.5q-12 18 -22 43l-248 610q-14 33 -20 64z" />
<glyph unicode="x" horiz-adv-x="778" d="M33 12q6 8 21.5 31t39 53.5t50 67.5t55.5 74q66 86 145 190l-221 291q-18 27 -27 51q-8 20 -6 42t25 36l274 -363l277 363q14 -10 20 -29q4 -16 0 -40.5t-33 -59.5q-29 -39 -65.5 -88t-71.5 -94q-41 -53 -84 -109l316 -416q-14 -10 -35 -10q-16 0 -41 12.5t-54 51.5 q-31 41 -70.5 93t-74.5 99q-41 53 -84 111l-235 -308q-18 -25 -39 -41q-16 -14 -38 -19q-5 -1 -10 -1z" />
<glyph unicode="y" horiz-adv-x="839" d="M57 784q0 18 8 36t31 26l322 -791l317 791q20 -6 29 -23q8 -16 8 -43.5t-20 -81.5q-10 -27 -33 -81t-52.5 -125.5t-63.5 -154.5t-66 -165q-80 -193 -172 -422q-12 -27 -27 -45q-14 -16 -32 -25q-9 -5 -20 -5q-12 0 -28 6q12 29 34.5 82t45.5 106q25 63 55 133 q-12 6 -24 18q-10 10 -22.5 28t-22.5 44q-4 12 -18.5 47t-33 83t-42 105.5t-46.5 114.5q-53 135 -121 297q-6 23 -6 45z" />
<glyph unicode="z" horiz-adv-x="794" d="M92 768v6q0 17 10 31t38 25.5t85 11.5h480l-531 -766h406q31 0 55 -8q23 -6 40 -21.5t17 -44.5h-479q-20 0 -39 4q-16 4 -32.5 12.5t-28.5 24.5q-6 16 -4 43t20 53q4 6 24.5 36t52.5 75t70.5 101.5t79.5 113.5q94 135 211 303h-475z" />
<glyph unicode="{" horiz-adv-x="499" d="M113 537v92q12 0 19 6t20 16q10 10 17 32t15 46q12 59 14.5 128t2.5 134v111q0 59 21.5 99t56.5 61q33 20 63.5 26t50.5 6v-82q-12 0 -44 -9t-42 -19q-16 -12 -25.5 -26.5t-15.5 -55.5v-111q0 -51 -1 -106.5t-7 -107.5t-20.5 -100t-40.5 -85q0 -10 -13 -10 q10 -14 14.5 -22.5t14.5 -18.5q16 -35 25.5 -76t17.5 -88q16 -92 19.5 -183.5t3.5 -144.5q0 -31 8 -48t24 -30q6 -4 17.5 -12t24 -17.5t23.5 -16.5t17 -9v-66q-16 0 -33.5 6.5t-37.5 16.5q-41 20 -79 62t-38 114q2 39 2 99.5t-6 126t-17.5 126t-31.5 97.5q-12 25 -21.5 32 t-17.5 7z" />
<glyph unicode="|" horiz-adv-x="589" />
<glyph unicode="}" horiz-adv-x="616" d="M168 -70q12 0 44 9.5t42 19.5q16 12 25.5 26.5t15.5 55.5v111q0 51 1 106t7 107.5t20.5 100.5t41.5 85q0 10 12 10q-10 14 -14.5 22.5t-14.5 18.5q-16 35 -25.5 76t-17.5 88q-16 92 -19 183t-3 145q0 31 -8.5 48t-24.5 29q-6 4 -17.5 12.5t-23.5 17.5t-23.5 16.5 t-17.5 9.5v65q16 0 33.5 -6t38.5 -16q41 -20 78.5 -62.5t37.5 -113.5q-2 -39 -2 -99.5t6.5 -126t17.5 -126t32 -97.5q12 -25 21 -32t18 -7v-92q-12 0 -19.5 -6t-19.5 -16q-10 -10 -17.5 -32t-15.5 -46q-12 -59 -14.5 -128t-2.5 -134v-111q0 -59 -21.5 -99t-55.5 -61 q-33 -20 -64 -26.5t-51 -6.5v82z" />
<glyph unicode="~" horiz-adv-x="714" />
<glyph unicode="&#xa1;" horiz-adv-x="555" />
<glyph unicode="&#xa2;" horiz-adv-x="854" />
<glyph unicode="&#xa3;" horiz-adv-x="1122" />
<glyph unicode="&#xa4;" horiz-adv-x="1351" />
<glyph unicode="&#xa5;" horiz-adv-x="1196" />
<glyph unicode="&#xa6;" horiz-adv-x="532" />
<glyph unicode="&#xa7;" horiz-adv-x="1140" />
<glyph unicode="&#xa8;" horiz-adv-x="681" />
<glyph unicode="&#xa9;" horiz-adv-x="1507" />
<glyph unicode="&#xaa;" horiz-adv-x="819" />
<glyph unicode="&#xab;" horiz-adv-x="1003" />
<glyph unicode="&#xac;" horiz-adv-x="1196" />
<glyph unicode="&#xad;" horiz-adv-x="661" d="M63 487q-2 33 19 58q16 23 57 39t121 18h91h40h11h6q57 4 104 -4q41 -8 73.5 -32.5t32.5 -78.5h-555z" />
<glyph unicode="&#xae;" horiz-adv-x="1507" />
<glyph unicode="&#xaf;" horiz-adv-x="681" />
<glyph unicode="&#xb0;" horiz-adv-x="811" />
<glyph unicode="&#xb1;" horiz-adv-x="1196" />
<glyph unicode="&#xb2;" horiz-adv-x="794" />
<glyph unicode="&#xb3;" horiz-adv-x="757" />
<glyph unicode="&#xb4;" horiz-adv-x="272" d="M90 1144.5q-4 24.5 6 72.5q6 33 15.5 71.5t19.5 79.5h68l-64 -276q-20 2 -31 16q-10 12 -14 36.5z" />
<glyph unicode="&#xb5;" horiz-adv-x="1048" />
<glyph unicode="&#xb6;" horiz-adv-x="821" />
<glyph unicode="&#xb7;" horiz-adv-x="532" />
<glyph unicode="&#xb8;" horiz-adv-x="681" />
<glyph unicode="&#xb9;" horiz-adv-x="761" />
<glyph unicode="&#xba;" horiz-adv-x="819" />
<glyph unicode="&#xbb;" horiz-adv-x="1003" />
<glyph unicode="&#xbc;" horiz-adv-x="1634" />
<glyph unicode="&#xbd;" horiz-adv-x="1699" />
<glyph unicode="&#xbe;" horiz-adv-x="1634" />
<glyph unicode="&#xbf;" horiz-adv-x="868" />
<glyph unicode="&#xc0;" horiz-adv-x="1218" />
<glyph unicode="&#xc1;" horiz-adv-x="1218" />
<glyph unicode="&#xc2;" horiz-adv-x="1218" />
<glyph unicode="&#xc3;" horiz-adv-x="1218" />
<glyph unicode="&#xc4;" horiz-adv-x="1218" />
<glyph unicode="&#xc5;" horiz-adv-x="1218" />
<glyph unicode="&#xc6;" horiz-adv-x="1712" />
<glyph unicode="&#xc7;" horiz-adv-x="1204" />
<glyph unicode="&#xc8;" horiz-adv-x="1064" />
<glyph unicode="&#xc9;" horiz-adv-x="1064" />
<glyph unicode="&#xca;" horiz-adv-x="1064" />
<glyph unicode="&#xcb;" horiz-adv-x="1064" />
<glyph unicode="&#xcc;" horiz-adv-x="512" />
<glyph unicode="&#xcd;" horiz-adv-x="512" />
<glyph unicode="&#xce;" horiz-adv-x="512" />
<glyph unicode="&#xcf;" horiz-adv-x="512" />
<glyph unicode="&#xd0;" horiz-adv-x="1232" />
<glyph unicode="&#xd1;" horiz-adv-x="1353" />
<glyph unicode="&#xd2;" horiz-adv-x="1398" />
<glyph unicode="&#xd3;" horiz-adv-x="1398" />
<glyph unicode="&#xd4;" horiz-adv-x="1398" />
<glyph unicode="&#xd5;" horiz-adv-x="1398" />
<glyph unicode="&#xd6;" horiz-adv-x="1398" />
<glyph unicode="&#xd7;" horiz-adv-x="1021" />
<glyph unicode="&#xd8;" horiz-adv-x="1398" />
<glyph unicode="&#xd9;" horiz-adv-x="1327" />
<glyph unicode="&#xda;" horiz-adv-x="1327" />
<glyph unicode="&#xdb;" horiz-adv-x="1327" />
<glyph unicode="&#xdc;" horiz-adv-x="1327" />
<glyph unicode="&#xdd;" horiz-adv-x="1196" />
<glyph unicode="&#xde;" horiz-adv-x="1193" />
<glyph unicode="&#xdf;" horiz-adv-x="1232" />
<glyph unicode="&#xe0;" horiz-adv-x="974" />
<glyph unicode="&#xe1;" horiz-adv-x="974" />
<glyph unicode="&#xe2;" horiz-adv-x="974" />
<glyph unicode="&#xe3;" horiz-adv-x="974" />
<glyph unicode="&#xe4;" horiz-adv-x="974" />
<glyph unicode="&#xe5;" horiz-adv-x="974" />
<glyph unicode="&#xe6;" horiz-adv-x="1454" />
<glyph unicode="&#xe7;" horiz-adv-x="854" />
<glyph unicode="&#xe8;" horiz-adv-x="940" />
<glyph unicode="&#xe9;" horiz-adv-x="940" />
<glyph unicode="&#xea;" horiz-adv-x="940" />
<glyph unicode="&#xeb;" horiz-adv-x="940" />
<glyph unicode="&#xec;" horiz-adv-x="446" />
<glyph unicode="&#xed;" horiz-adv-x="446" />
<glyph unicode="&#xee;" horiz-adv-x="446" />
<glyph unicode="&#xef;" horiz-adv-x="446" />
<glyph unicode="&#xf0;" horiz-adv-x="1015" />
<glyph unicode="&#xf1;" horiz-adv-x="1024" />
<glyph unicode="&#xf2;" horiz-adv-x="991" />
<glyph unicode="&#xf3;" horiz-adv-x="991" />
<glyph unicode="&#xf4;" horiz-adv-x="991" />
<glyph unicode="&#xf5;" horiz-adv-x="991" />
<glyph unicode="&#xf6;" horiz-adv-x="991" />
<glyph unicode="&#xf7;" horiz-adv-x="1196" />
<glyph unicode="&#xf8;" horiz-adv-x="991" />
<glyph unicode="&#xf9;" horiz-adv-x="1024" />
<glyph unicode="&#xfa;" horiz-adv-x="1028" />
<glyph unicode="&#xfb;" horiz-adv-x="1026" />
<glyph unicode="&#xfc;" horiz-adv-x="1077" />
<glyph unicode="&#xfd;" horiz-adv-x="917" />
<glyph unicode="&#xfe;" horiz-adv-x="1128" />
<glyph unicode="&#xff;" horiz-adv-x="917" />
<glyph unicode="&#x131;" horiz-adv-x="448" />
<glyph unicode="&#x141;" horiz-adv-x="1003" />
<glyph unicode="&#x142;" horiz-adv-x="595" />
<glyph unicode="&#x152;" horiz-adv-x="1533" />
<glyph unicode="&#x153;" horiz-adv-x="1435" />
<glyph unicode="&#x160;" horiz-adv-x="978" />
<glyph unicode="&#x161;" horiz-adv-x="808" />
<glyph unicode="&#x178;" horiz-adv-x="962" />
<glyph unicode="&#x17d;" horiz-adv-x="901" />
<glyph unicode="&#x17e;" horiz-adv-x="714" />
<glyph unicode="&#x192;" horiz-adv-x="614" />
<glyph unicode="&#x2c6;" horiz-adv-x="681" />
<glyph unicode="&#x2c7;" horiz-adv-x="681" />
<glyph unicode="&#x2d8;" horiz-adv-x="681" />
<glyph unicode="&#x2d9;" horiz-adv-x="681" />
<glyph unicode="&#x2da;" horiz-adv-x="681" />
<glyph unicode="&#x2db;" horiz-adv-x="681" />
<glyph unicode="&#x2dc;" horiz-adv-x="681" />
<glyph unicode="&#x2dd;" horiz-adv-x="681" />
<glyph unicode="&#x3a9;" horiz-adv-x="1331" />
<glyph unicode="&#x3c0;" horiz-adv-x="1210" />
<glyph unicode="&#xe00;" horiz-adv-x="399" />
<glyph unicode="&#xe01;" horiz-adv-x="1077" />
<glyph unicode="&#xe02;" horiz-adv-x="933" />
<glyph unicode="&#xe03;" horiz-adv-x="937" />
<glyph unicode="&#xe04;" horiz-adv-x="1126" />
<glyph unicode="&#xe05;" horiz-adv-x="1159" />
<glyph unicode="&#xe06;" horiz-adv-x="1089" />
<glyph unicode="&#xe07;" horiz-adv-x="942" />
<glyph unicode="&#xe08;" horiz-adv-x="903" />
<glyph unicode="&#xe09;" horiz-adv-x="1048" />
<glyph unicode="&#xe0a;" horiz-adv-x="952" />
<glyph unicode="&#xe0b;" horiz-adv-x="956" />
<glyph unicode="&#xe0c;" horiz-adv-x="1654" />
<glyph unicode="&#xe0d;" horiz-adv-x="1660" />
<glyph unicode="&#xe0e;" horiz-adv-x="1083" />
<glyph unicode="&#xe0f;" horiz-adv-x="1083" />
<glyph unicode="&#xe10;" horiz-adv-x="933" />
<glyph unicode="&#xe11;" horiz-adv-x="1097" />
<glyph unicode="&#xe12;" horiz-adv-x="1716" />
<glyph unicode="&#xe13;" horiz-adv-x="1660" />
<glyph unicode="&#xe14;" horiz-adv-x="1114" />
<glyph unicode="&#xe15;" horiz-adv-x="1126" />
<glyph unicode="&#xe16;" horiz-adv-x="1093" />
<glyph unicode="&#xe17;" horiz-adv-x="1083" />
<glyph unicode="&#xe18;" horiz-adv-x="1034" />
<glyph unicode="&#xe19;" horiz-adv-x="1114" />
<glyph unicode="&#xe1a;" horiz-adv-x="1136" />
<glyph unicode="&#xe1b;" horiz-adv-x="1132" />
<glyph unicode="&#xe1c;" horiz-adv-x="1267" />
<glyph unicode="&#xe1d;" horiz-adv-x="1257" />
<glyph unicode="&#xe1e;" horiz-adv-x="1333" />
<glyph unicode="&#xe1f;" horiz-adv-x="1333" />
<glyph unicode="&#xe20;" horiz-adv-x="1087" />
<glyph unicode="&#xe21;" horiz-adv-x="1089" />
<glyph unicode="&#xe22;" horiz-adv-x="1052" />
<glyph unicode="&#xe23;" horiz-adv-x="847" />
<glyph unicode="&#xe24;" horiz-adv-x="1077" />
<glyph unicode="&#xe25;" horiz-adv-x="1007" />
<glyph unicode="&#xe26;" horiz-adv-x="1083" />
<glyph unicode="&#xe27;" horiz-adv-x="837" />
<glyph unicode="&#xe28;" horiz-adv-x="1157" />
<glyph unicode="&#xe29;" horiz-adv-x="1146" />
<glyph unicode="&#xe2a;" horiz-adv-x="1128" />
<glyph unicode="&#xe2b;" horiz-adv-x="1075" />
<glyph unicode="&#xe2c;" horiz-adv-x="1353" />
<glyph unicode="&#xe2d;" horiz-adv-x="987" />
<glyph unicode="&#xe2e;" horiz-adv-x="1021" />
<glyph unicode="&#xe2f;" horiz-adv-x="1112" />
<glyph unicode="&#xe30;" horiz-adv-x="579" />
<glyph unicode="&#xe31;" />
<glyph unicode="&#xe32;" horiz-adv-x="815" />
<glyph unicode="&#xe33;" horiz-adv-x="780" />
<glyph unicode="&#xe34;" />
<glyph unicode="&#xe35;" />
<glyph unicode="&#xe36;" />
<glyph unicode="&#xe37;" />
<glyph unicode="&#xe38;" />
<glyph unicode="&#xe39;" />
<glyph unicode="&#xe3a;" />
<glyph unicode="&#xe3f;" horiz-adv-x="1105" />
<glyph unicode="&#xe40;" horiz-adv-x="411" />
<glyph unicode="&#xe41;" horiz-adv-x="753" />
<glyph unicode="&#xe42;" horiz-adv-x="454" />
<glyph unicode="&#xe43;" horiz-adv-x="475" />
<glyph unicode="&#xe44;" horiz-adv-x="466" />
<glyph unicode="&#xe45;" horiz-adv-x="780" />
<glyph unicode="&#xe46;" horiz-adv-x="1052" />
<glyph unicode="&#xe47;" />
<glyph unicode="&#xe48;" />
<glyph unicode="&#xe49;" />
<glyph unicode="&#xe4a;" />
<glyph unicode="&#xe4b;" />
<glyph unicode="&#xe4c;" />
<glyph unicode="&#xe4d;" />
<glyph unicode="&#xe4e;" />
<glyph unicode="&#xe4f;" horiz-adv-x="1064" />
<glyph unicode="&#xe50;" horiz-adv-x="1060" />
<glyph unicode="&#xe51;" horiz-adv-x="1114" />
<glyph unicode="&#xe52;" horiz-adv-x="1234" />
<glyph unicode="&#xe53;" horiz-adv-x="1198" />
<glyph unicode="&#xe54;" horiz-adv-x="1142" />
<glyph unicode="&#xe55;" horiz-adv-x="1153" />
<glyph unicode="&#xe56;" horiz-adv-x="1134" />
<glyph unicode="&#xe57;" horiz-adv-x="1464" />
<glyph unicode="&#xe58;" horiz-adv-x="1140" />
<glyph unicode="&#xe59;" horiz-adv-x="1144" />
<glyph unicode="&#xe5b;" horiz-adv-x="1699" />
<glyph unicode="&#x2000;" horiz-adv-x="817" />
<glyph unicode="&#x2001;" horiz-adv-x="1634" />
<glyph unicode="&#x2002;" horiz-adv-x="817" />
<glyph unicode="&#x2003;" horiz-adv-x="1634" />
<glyph unicode="&#x2004;" horiz-adv-x="544" />
<glyph unicode="&#x2005;" horiz-adv-x="408" />
<glyph unicode="&#x2006;" horiz-adv-x="272" />
<glyph unicode="&#x2007;" horiz-adv-x="272" />
<glyph unicode="&#x2008;" horiz-adv-x="204" />
<glyph unicode="&#x2009;" horiz-adv-x="326" />
<glyph unicode="&#x200a;" horiz-adv-x="90" />
<glyph unicode="&#x2010;" horiz-adv-x="661" d="M63 487q-2 33 19 58q16 23 57 39t121 18h91h40h11h6q57 4 104 -4q41 -8 73.5 -32.5t32.5 -78.5h-555z" />
<glyph unicode="&#x2011;" horiz-adv-x="661" d="M63 487q-2 33 19 58q16 23 57 39t121 18h91h40h11h6q57 4 104 -4q41 -8 73.5 -32.5t32.5 -78.5h-555z" />
<glyph unicode="&#x2012;" horiz-adv-x="661" d="M63 487q-2 33 19 58q16 23 57 39t121 18h91h40h11h6q57 4 104 -4q41 -8 73.5 -32.5t32.5 -78.5h-555z" />
<glyph unicode="&#x2013;" horiz-adv-x="968" d="M37 453q0 59 37 87.5t82 39.5q53 12 118 10h443q55 0 95 -21.5t67 -48.5q31 -31 53 -67h-895z" />
<glyph unicode="&#x2014;" horiz-adv-x="1624" d="M27 455q12 74 59 108.5t100 46.5q61 14 136 8h985q123 0 183 -25.5t83 -55.5q27 -37 18 -82h-1564z" />
<glyph unicode="&#x2018;" horiz-adv-x="409" d="M106 1006l82 374q25 -6 41 -26q14 -16 19.5 -51t-8.5 -95q-8 -45 -20.5 -96t-24.5 -106h-89z" />
<glyph unicode="&#x2019;" horiz-adv-x="409" d="M135.5 1081q-6.5 35 9.5 95q8 45 20.5 96t24.5 106h89l-82 -374q-25 6 -41 26q-14 16 -20.5 51z" />
<glyph unicode="&#x201a;" horiz-adv-x="411" />
<glyph unicode="&#x201c;" horiz-adv-x="557" d="M88 1049l72 313q20 -6 33 -23q10 -16 17 -43.5t-3 -78.5q-12 -35 -19.5 -78t-17.5 -90h-82zM332 1049l69 313q20 -6 33 -23q10 -16 15.5 -43.5t-7.5 -78.5q-6 -35 -16 -78t-23 -90h-71z" />
<glyph unicode="&#x201d;" horiz-adv-x="591" d="M111.5 1112q-5.5 29 7.5 80q6 35 16 78t23 90h71l-69 -313q-20 4 -33 22q-10 14 -15.5 43zM351.5 1112q-7.5 29 2.5 80q12 35 19.5 78t17.5 90h82l-72 -313q-20 4 -32 22q-10 14 -17.5 43z" />
<glyph unicode="&#x201e;" horiz-adv-x="714" />
<glyph unicode="&#x2020;" horiz-adv-x="1024" />
<glyph unicode="&#x2021;" horiz-adv-x="1024" />
<glyph unicode="&#x2022;" horiz-adv-x="374" d="M98 621v159q53 4 95 -10q35 -12 64.5 -47t29.5 -105q6 -66 6 -116q0 -28 -2 -53q-51 -2 -92 14q-35 14 -66 50t-35 108z" />
<glyph unicode="&#x2026;" horiz-adv-x="2048" />
<glyph unicode="&#x202f;" horiz-adv-x="326" />
<glyph unicode="&#x2030;" horiz-adv-x="1822" />
<glyph unicode="&#x2039;" horiz-adv-x="552" />
<glyph unicode="&#x203a;" horiz-adv-x="552" />
<glyph unicode="&#x2044;" horiz-adv-x="864" />
<glyph unicode="&#x205f;" horiz-adv-x="408" />
<glyph unicode="&#x20ac;" horiz-adv-x="919" />
<glyph unicode="&#x2122;" horiz-adv-x="1607" />
<glyph unicode="&#x2202;" horiz-adv-x="1015" />
<glyph unicode="&#x2206;" horiz-adv-x="1234" />
<glyph unicode="&#x220f;" horiz-adv-x="1425" />
<glyph unicode="&#x2211;" horiz-adv-x="1112" />
<glyph unicode="&#x2212;" horiz-adv-x="1196" />
<glyph unicode="&#x221a;" horiz-adv-x="1150" />
<glyph unicode="&#x221e;" horiz-adv-x="1654" />
<glyph unicode="&#x222b;" horiz-adv-x="694" />
<glyph unicode="&#x2248;" horiz-adv-x="1103" />
<glyph unicode="&#x2260;" horiz-adv-x="1099" />
<glyph unicode="&#x2264;" horiz-adv-x="1196" />
<glyph unicode="&#x2265;" horiz-adv-x="1196" />
<glyph unicode="&#x25ca;" horiz-adv-x="1329" />
<glyph unicode="&#xe000;" horiz-adv-x="849" d="M0 0v850h850v-850h-850z" />
<glyph unicode="&#xf700;" horiz-adv-x="933" />
<glyph unicode="&#xf701;" />
<glyph unicode="&#xf702;" />
<glyph unicode="&#xf703;" />
<glyph unicode="&#xf704;" />
<glyph unicode="&#xf705;" />
<glyph unicode="&#xf706;" />
<glyph unicode="&#xf707;" />
<glyph unicode="&#xf708;" />
<glyph unicode="&#xf709;" />
<glyph unicode="&#xf70a;" />
<glyph unicode="&#xf70b;" />
<glyph unicode="&#xf70c;" />
<glyph unicode="&#xf70d;" />
<glyph unicode="&#xf70e;" />
<glyph unicode="&#xf70f;" horiz-adv-x="1660" />
<glyph unicode="&#xf710;" />
<glyph unicode="&#xf711;" />
<glyph unicode="&#xf712;" />
<glyph unicode="&#xf713;" />
<glyph unicode="&#xf714;" />
<glyph unicode="&#xf715;" />
<glyph unicode="&#xf716;" />
<glyph unicode="&#xf717;" />
<glyph unicode="&#xf718;" />
<glyph unicode="&#xf719;" />
<glyph unicode="&#xf71a;" />
<glyph unicode="&#xf71b;" horiz-adv-x="1083" />
<glyph unicode="&#xf71c;" horiz-adv-x="1083" />
<glyph unicode="&#xf71d;" horiz-adv-x="1353" />
<glyph unicode="&#xf8ff;" horiz-adv-x="1699" />
<glyph horiz-adv-x="780" />
<glyph />
</font>
</defs>
</svg>
